#!OML:ASF F:\VICON\USERDATA\INSTALL\rory3\rory3.ASF
:FULLY-SPECIFIED
:DEGREES
274
root 1.79959 17.6601 34.4988 -161.15 -38.1204 -172.336
lowerback -14.6247 2.07153 0.854478
upperback -6.86564 1.89689 1.95648
thorax 0.911713 0.662923 1.84103
lowerneck -14.2222 -0.609759 -0.0266037
upperneck 38.0502 -6.04439 4.84943
head 16.155 -2.85938 0.760668
rclavicle -2.36802e-014 1.60022e-014
rhumerus -56.8458 -41.7728 -26.8626
rradius 9.45852
rwrist 47.2745
rhand 11.6323 10.5879
rfingers 7.12502
rthumb 36.6729 -15.5605
lclavicle -2.36802e-014 1.60022e-014
lhumerus -41.1504 19.9795 59.9907
lradius 21.2531
lwrist -18.5301
lhand 6.69028 17.3567
lfingers 7.12502
lthumb 31.9808 44.5665
rfemur -8.7316 2.55876 30.2906
rtibia 29.0781
rfoot 35.7088 -28.6309
rtoes 32.3939
lfemur -34.9605 4.03692 -24.5509
ltibia 29.1514
lfoot -39.0395 32.4902
ltoes 14.2124
275
root 1.79907 17.6585 34.4847 -161.273 -37.8093 -172.184
lowerback -14.4208 2.13738 1.13887
upperback -6.85069 1.95786 1.91521
thorax 0.829898 0.688718 1.64109
lowerneck -14.8558 -0.507845 -1.35946
upperneck 38.7921 -6.23039 6.19463
head 16.8325 -2.96224 1.54785
rclavicle 5.25537e-015 -3.76697e-014
rhumerus -59.0364 -43.4958 -23.2801
rradius 9.40963
rwrist 50.6326
rhand 12.5734 7.8306
rfingers 7.12502
rthumb 37.5628 -18.0863
lclavicle 5.25537e-015 -3.76697e-014
lhumerus -41.0358 20.501 59.2147
lradius 20.6736
lwrist -20.2964
lhand 7.16576 17.4666
lfingers 7.12502
lthumb 32.4335 44.5847
rfemur -8.61425 2.45376 30.2872
rtibia 28.9939
rfoot 36.1349 -27.6675
rtoes 31.8254
lfemur -34.7889 4.13657 -24.3566
ltibia 29.0313
lfoot -39.1032 32.4919
ltoes 13.7163
276
root 1.79847 17.6582 34.4728 -161.41 -37.6585 -171.943
lowerback -14.1849 2.13902 1.58576
upperback -6.83329 1.91419 1.91219
thorax 0.739898 0.658688 1.37359
lowerneck -14.5741 -0.455569 -0.624901
upperneck 38.3365 -5.90297 5.36564
head 16.4293 -2.81846 1.11195
rclavicle 2.21024e-014 -3.67752e-015
rhumerus -61.1483 -45.1578 -19.6976
rradius 9.24931
rwrist 53.8885
rhand 12.7335 7.67201
rfingers 7.12502
rthumb 37.7141 -18.2044
lclavicle 2.21024e-014 -3.67752e-015
lhumerus -40.8832 21.048 58.5023
lradius 20.1569
lwrist -21.9738
lhand 7.6205 17.5972
lfingers 7.12502
lthumb 32.8661 44.6256
rfemur -8.44056 2.96492 30.4902
rtibia 28.7858
rfoot 36.0089 -27.7499
rtoes 31.9853
lfemur -34.6462 3.94491 -24.0183
ltibia 28.8891
lfoot -38.9661 33.0989
ltoes 12.5151
277
root 1.79464 17.6546 34.4713 -161.374 -37.4624 -171.887
lowerback -14.0103 2.03174 1.90395
upperback -6.77419 1.74177 1.9665
thorax 0.719719 0.568846 1.2224
lowerneck -14.7211 -0.343839 -0.623184
upperneck 38.3235 -5.59493 5.09057
head 16.4271 -2.71885 1.04598
rclavicle -4.1664e-014 -5.81942e-014
rhumerus -62.7916 -46.8498 -16.4067
rradius 8.93872
rwrist 57.1696
rhand 12.4718 8.58068
rfingers 7.12502
rthumb 37.4668 -17.3617
lclavicle -4.1664e-014 -5.81942e-014
lhumerus -40.8798 21.8469 57.7532
lradius 19.7477
lwrist -23.6759
lhand 7.93853 17.8261
lfingers 7.12502
lthumb 33.1686 44.7905
rfemur -8.41061 2.85059 30.4052
rtibia 28.6562
rfoot 36.2746 -26.8643
rtoes 31.3124
lfemur -34.5897 3.53576 -23.8463
ltibia 28.8257
lfoot -39.2081 33.6946
ltoes 12.1224
278
root 1.78449 17.6488 34.4759 -161.433 -36.9935 -171.604
lowerback -13.9483 2.09798 2.32154
upperback -6.68437 1.77631 2.08038
thorax 0.790222 0.579776 1.11096
lowerneck -14.7989 -0.343895 -0.684425
upperneck 38.2264 -5.45712 4.88977
head 16.3786 -2.68948 0.993951
rclavicle 2.75472e-014 1.67476e-014
rhumerus -64.7717 -48.5738 -12.6984
rradius 8.70739
rwrist 60.4777
rhand 12.3948 9.30979
rfingers 7.12502
rthumb 37.394 -16.6518
lclavicle 2.75472e-014 1.67476e-014
lhumerus -40.9172 23.4624 56.4959
lradius 19.0889
lwrist -26.6557
lhand 8.42479 17.8887
lfingers 7.12502
lthumb 33.6308 44.7537
rfemur -8.42725 2.87184 30.3648
rtibia 28.5523
rfoot 36.6275 -25.7487
rtoes 29.9697
lfemur -34.6131 3.20672 -23.532
ltibia 28.8472
lfoot -40.507 33.5731
ltoes 13.6289
279
root 1.78191 17.6434 34.4704 -161.582 -36.1548 -171.107
lowerback -13.9593 2.30381 2.59024
upperback -6.62076 1.99841 2.28908
thorax 0.863712 0.684486 1.21117
lowerneck -14.4647 -0.342738 -0.243854
upperneck 37.8197 -5.22818 4.23187
head 16.0309 -2.61527 0.676646
rclavicle 1.46481e-013 1.56232e-014
rhumerus -67.0705 -50.0959 -8.58335
rradius 8.58933
rwrist 63.5847
rhand 13.2195 9.54909
rfingers 7.12502
rthumb 38.1731 -16.2028
lclavicle 1.46481e-013 1.56232e-014
lhumerus -41.0606 25.1805 55.0586
lradius 18.3592
lwrist -29.813
lhand 9.07163 17.8473
lfingers 7.12502
lthumb 34.2453 44.5762
rfemur -8.46196 3.3059 30.4465
rtibia 28.4701
rfoot 36.8876 -25.2566
rtoes 29.3563
lfemur -34.6699 3.03991 -23.0075
ltibia 28.8993
lfoot -43.0574 32.6277
ltoes 17.4549
280
root 1.78808 17.6367 34.4602 -161.529 -35.1636 -170.562
lowerback -14.0219 2.65087 2.95259
upperback -6.74924 2.38357 2.30027
thorax 0.775168 0.854887 1.07605
lowerneck -14.1094 -0.295556 0.0481921
upperneck 37.6662 -5.16783 4.05147
head 15.8488 -2.58627 0.561357
rclavicle 1.20948e-014 -3.2551e-015
rhumerus -70.1213 -51.4082 -4.065
rradius 8.42825
rwrist 66.9353
rhand 13.1108 9.74537
rfingers 7.12502
rthumb 38.0705 -16.0346
lclavicle 1.20948e-014 -3.2551e-015
lhumerus -40.9867 25.7754 53.9245
lradius 17.7683
lwrist -31.8172
lhand 9.59002 17.908
lfingers 7.12502
lthumb 34.7374 44.525
rfemur -8.70899 3.92286 30.5737
rtibia 28.3903
rfoot 37.1283 -24.9309
rtoes 29.8082
lfemur -34.9997 2.63731 -22.3221
ltibia 29.1028
lfoot -46.0025 31.6943
ltoes 21.1003
281
root 1.78704 17.6289 34.4527 -161.43 -34.5541 -170.375
lowerback -13.7512 2.86467 3.45302
upperback -6.95197 2.61598 2.03663
thorax 0.453186 0.943994 0.541628
lowerneck -13.8828 -0.240617 0.18956
upperneck 37.7098 -5.27171 4.26961
head 15.8282 -2.60184 0.610512
rclavicle 4.83295e-015 3.77691e-015
rhumerus -73.7135 -52.3172 0.660564
rradius 8.1939
rwrist 70.7922
rhand 10.9172 10.9296
rfingers 7.12502
rthumb 35.9957 -15.3879
lclavicle 4.83295e-015 3.77691e-015
lhumerus -40.8946 25.9895 52.5645
lradius 17.2975
lwrist -33.5403
lhand 10.0502 18.1402
lfingers 7.12502
lthumb 35.174 44.6555
rfemur -8.55454 4.22423 30.5351
rtibia 28.1065
rfoot 36.4624 -26.149
rtoes 33.1713
lfemur -35.1572 2.27611 -22.0198
ltibia 29.2988
lfoot -46.9048 32.3577
ltoes 20.5092
282
root 1.78083 17.5997 34.4418 -161.485 -34.2865 -170.359
lowerback -13.2845 2.98135 4.04497
upperback -7.07645 2.74581 1.64937
thorax 0.121086 0.985077 -0.193293
lowerneck -13.9884 -0.239065 0.421553
upperneck 37.9188 -5.50841 4.47049
head 15.9767 -2.65277 0.608241
rclavicle 1.58282e-014 2.60408e-014
rhumerus -77.5834 -53.2531 5.64799
rradius 8.18397
rwrist 73.6141
rhand 9.4612 11.4505
rfingers 7.12502
rthumb 34.6151 -15.1945
lclavicle 1.58282e-014 2.60408e-014
lhumerus -40.5963 26.016 51.2582
lradius 16.8385
lwrist -35.2532
lhand 10.5302 18.5136
lfingers 7.12502
lthumb 35.6291 44.9204
rfemur -8.05005 3.00624 30.362
rtibia 27.7722
rfoot 35.9523 -27.0393
rtoes 36.6372
lfemur -35.0417 2.13771 -21.9678
ltibia 29.4278
lfoot -47.0342 32.9746
ltoes 19.225
283
root 1.78167 17.5957 34.4002 -161.556 -33.7425 -170.359
lowerback -13.43 2.97064 3.71344
upperback -6.82955 2.77013 1.8111
thorax 0.436213 1.02365 0.173124
lowerneck -14.4764 -0.246465 0.165807
upperneck 38.2291 -5.48312 4.42878
head 16.2599 -2.67259 0.632579
rclavicle 7.12395e-014 4.26393e-014
rhumerus -80.8056 -54.4317 10.7097
rradius 8.23718
rwrist 76.575
rhand 8.4241 11.5559
rfingers 7.12502
rthumb 33.6302 -15.3092
lclavicle 7.12395e-014 4.26393e-014
lhumerus -40.5067 27.686 49.8357
lradius 16.2955
lwrist -38.1644
lhand 11.0111 18.6368
lfingers 7.12502
lthumb 36.0847 44.9324
rfemur -7.31928 3.89536 30.3777
rtibia 27.2623
rfoot 34.7725 -28.4055
rtoes 38.1213
lfemur -34.7025 2.39578 -21.9517
ltibia 29.4277
lfoot -47.5837 33.0939
ltoes 18.4465
